<svg width="80" height="80" viewBox="0 0 80 80" fill="none" xmlns="http://www.w3.org/2000/svg">
<path d="M76.25 35C75.7812 34.2188 71.1547 32.2203 71.1547 32.2203C71.9594 31.8047 72.5094 31.7188 72.5094 30C72.5094 28.125 72.5 27.5 71.25 27.5H67.0094C66.9922 27.4625 66.9734 27.4234 66.9562 27.3844C64.2187 21.4062 63.8516 19.8953 59.7687 17.8609C54.2922 15.1375 44.025 15 40 15C35.975 15 25.7078 15.1375 20.2359 17.8609C16.1484 19.8922 16.25 20.9375 13.0484 27.3844C13.0484 27.4016 13.0156 27.4469 12.9859 27.5H8.74062C7.5 27.5 7.49062 28.125 7.49062 30C7.49062 31.7188 8.04063 31.8047 8.84531 32.2203C8.84531 32.2203 4.375 34.375 3.75 35C3.125 35.625 2.5 40 2.5 47.5C2.5 55 3.125 62.5 3.125 62.5H4.99063C4.99063 64.6875 5.3125 65 6.25 65H18.75C19.6875 65 20 64.6875 20 62.5H60C60 64.6875 60.3125 65 61.25 65H74.0625C74.6875 65 75 64.5312 75 62.5H76.875C76.875 62.5 77.5 54.8438 77.5 47.5C77.5 40.1562 76.7188 35.7812 76.25 35ZM19.5719 42.0219C16.7261 42.333 13.8658 42.4926 11.0031 42.5C7.8125 42.5 7.70313 42.7047 7.47813 40.7125C7.39355 39.8007 7.4203 38.8819 7.55781 37.9766L7.65625 37.5H8.125C10 37.5 11.7609 37.5797 15.0859 38.5594C16.7771 39.0668 18.3677 39.8629 19.7875 40.9125C20.4687 41.4062 20.625 41.875 20.625 41.875L19.5719 42.0219ZM58.1906 53.2719L57.5 55H22.5C22.5 55 22.5609 54.9047 21.7188 53.2531C21.0938 52.0313 21.875 51.25 23.1109 50.8063C25.5047 49.9438 32.5 47.5 40 47.5C47.5 47.5 54.6344 49.6063 56.9531 50.8063C57.8125 51.25 58.8797 51.5625 58.1906 53.2812V53.2719ZM18.0344 31.9391C17.5297 31.9682 17.0238 31.9719 16.5188 31.95C16.9266 31.225 17.1531 30.4172 17.5516 29.5734C18.8016 26.9172 20.2313 23.9109 22.7766 22.6437C26.4547 20.8125 34.0781 19.9875 40 19.9875C45.9219 19.9875 53.5453 20.8062 57.2234 22.6437C59.7688 23.9109 61.1922 26.9188 62.4484 29.5734C62.85 30.425 63.0734 31.2391 63.4922 31.9688C63.1797 31.9859 62.8203 31.9688 61.9625 31.9391H18.0344ZM72.3656 40.7062C72.0313 42.6562 72.3437 42.5 68.9969 42.5C66.1342 42.4926 63.2739 42.333 60.4281 42.0219C59.9828 41.9422 59.8562 41.1906 60.2125 40.9125C61.625 39.8511 63.2179 39.0539 64.9141 38.5594C68.2391 37.5797 70.1109 37.4484 71.9594 37.5141C72.0835 37.5188 72.2015 37.5693 72.2907 37.6558C72.3798 37.7424 72.4338 37.8589 72.4422 37.9828C72.5305 38.8923 72.5048 39.8093 72.3656 40.7125V40.7062Z" fill="#3D7DCA"/>
</svg>
