<svg width="80" height="80" viewBox="0 0 80 80" fill="none" xmlns="http://www.w3.org/2000/svg">
<rect width="80" height="80" fill="#F8F9FA"/>
<path d="M76.25 35C75.7812 34.2188 71.1547 32.2203 71.1547 32.2203C71.9594 31.8047 72.5094 31.7188 72.5094 30C72.5094 28.125 72.5 27.5 71.25 27.5H67.0094C66.9922 27.4625 66.9734 27.4234 66.9562 27.3844C64.2188 21.4062 63.8516 19.8953 59.7687 17.8609C54.2922 15.1375 44.025 15 40 15C35.975 15 25.7078 15.1375 20.2359 17.8609C16.1484 19.8922 16.25 20.9375 13.0484 27.3844C13.0484 27.4016 13.0156 27.4469 12.9859 27.5H8.74062C7.5 27.5 7.49062 28.125 7.49062 30C7.49062 31.7188 8.04063 31.8047 8.84531 32.2203C8.84531 32.2203 4.375 34.375 3.75 35C3.125 35.625 2.5 40 2.5 47.5C2.5 55 3.125 62.5 3.125 62.5H4.99063C4.99063 64.6875 5.3125 65 6.25 65H18.75C19.6875 65 20 64.6875 20 62.5H60C60 64.6875 60.3125 65 61.25 65H74.0625C74.6875 65 75 64.5312 75 62.5H76.875C76.875 62.5 77.5 54.8438 77.5 47.5C77.5 40.1562 76.7188 35.7812 76.25 35ZM19.5719 42.0219C16.7261 42.333 13.8658 42.4926 11.0031 42.5C7.8125 42.5 7.70312 42.7047 7.47813 40.7125C7.39355 39.8007 7.4203 38.8819 7.55781 37.9766L7.65625 37.5H8.125C10 37.5 11.7609 37.5797 15.0859 38.5594C16.7771 39.0668 18.3677 39.8629 19.7875 40.9125C20.4688 41.4062 20.625 41.875 20.625 41.875L19.5719 42.0219ZM58.1906 53.2719L57.5 55H22.5C22.5 55 22.5609 54.9047 21.7188 53.2531C21.0938 52.0312 21.875 51.25 23.1109 50.8063C25.5047 49.9438 32.5 47.5 40 47.5C47.5 47.5 54.6344 49.6063 56.9531 50.8063C57.8125 51.25 58.8797 51.5625 58.1906 53.2812V53.2719ZM18.0344 31.9391C17.5297 31.9682 17.0238 31.9719 16.5188 31.95C16.9266 31.225 17.1531 30.4172 17.5516 29.5734C18.8016 26.9172 20.2313 23.9109 22.7766 22.6437C26.4547 20.8125 34.0781 19.9875 40 19.9875C45.9219 19.9875 53.5453 20.8062 57.2234 22.6437C59.7688 23.9109 61.1922 26.9188 62.4484 29.5734C62.85 30.425 63.0734 31.2391 63.4922 31.9688C63.1797 31.9859 62.8203 31.9688 61.9625 31.9391H18.0344ZM72.3656 40.7062C72.0312 42.6562 72.3438 42.5 68.9969 42.5C66.1342 42.4926 63.2739 42.333 60.4281 42.0219C59.9828 41.9422 59.8562 41.1906 60.2125 40.9125C61.625 39.8511 63.2178 39.0539 64.9141 38.5594C68.2391 37.5797 70.1109 37.4484 71.9594 37.5141C72.0835 37.5188 72.2015 37.5693 72.2907 37.6558C72.3798 37.7424 72.4338 37.8589 72.4422 37.9828C72.5305 38.8923 72.5048 39.8093 72.3656 40.7125V40.7062Z" fill="#3D7DCA"/>
<path d="M64.1651 36.5181L61.6709 39.0123L59.26 41.4232L56.1896 44.4936C55.3566 44.549 54.5214 44.4258 53.7399 44.1321C52.9584 43.8384 52.2486 43.3811 51.6583 42.7907C51.068 42.2004 50.6106 41.4907 50.3169 40.7092C50.0233 39.9276 49.9 39.0924 49.9555 38.2594L53.0258 35.189L55.4367 32.7781L57.9309 30.2839C58.0087 30.2059 58.0524 30.1002 58.0524 29.99C58.0524 29.8798 58.0087 29.7742 57.9309 29.6961C57.9013 29.6665 57.8658 29.6484 57.8309 29.6297L57.8316 29.6291L57.8251 29.6265C57.8037 29.616 57.7818 29.6068 57.7593 29.5987C55.9842 28.8016 54.0607 28.3887 52.1148 28.3871C44.4122 28.3871 38.1677 34.6316 38.1677 42.3342C38.1677 43.8052 38.3987 45.2213 38.8206 46.5523L24.2755 61.0981C19.4077 61.1768 15.4839 65.1413 15.4839 70.0284C15.4839 74.9639 19.4858 78.9658 24.4213 78.9658C29.3077 78.9658 33.2729 75.0413 33.3516 70.1736L47.8974 55.6278C49.2617 56.0608 50.6847 56.281 52.1161 56.2807C59.8187 56.2807 66.0632 50.0361 66.0632 42.3336C66.0632 40.3219 65.6206 38.42 64.8522 36.6936C64.8442 36.6671 64.8334 36.6416 64.82 36.6174L64.8058 36.5839L64.8012 36.5884C64.7858 36.5645 64.7748 36.5381 64.7535 36.5168C64.6752 36.4391 64.5693 36.3956 64.459 36.3959C64.3488 36.3961 64.2431 36.4401 64.1651 36.5181ZM28.1142 70.0284C28.1142 71.0079 27.7251 71.9473 27.0325 72.6399C26.3398 73.3325 25.4005 73.7216 24.421 73.7216C23.4415 73.7216 22.5021 73.3325 21.8095 72.6399C21.1168 71.9473 20.7277 71.0079 20.7277 70.0284C20.7277 69.0489 21.1168 68.1095 21.8095 67.4169C22.5021 66.7243 23.4415 66.3352 24.421 66.3352C25.4005 66.3352 26.3398 66.7243 27.0325 67.4169C27.7251 68.1095 28.1142 69.0489 28.1142 70.0284Z" fill="#3D7DCA" stroke="#F8F9FA" stroke-width="2"/>
<path d="M61.9853 32.0767C62.0087 32.2593 62.1859 32.4424 62.277 32.5974C62.4949 32.9682 62.729 33.3283 62.9307 33.7088C63.1359 34.096 63.3766 34.4807 63.5505 34.8816C63.624 35.0509 63.7772 35.2158 63.7798 35.4031" stroke="#F8F9FA" stroke-width="3" stroke-linecap="round"/>
<path d="M60 35C59.9843 35.5145 59.0472 36.0261 58.6046 36.2579C57.8293 36.6639 57.2578 37.4033 56.6024 37.9431C56.2653 38.2207 56.0457 38.5979 55.6796 38.8438C55.3296 39.0789 55.0187 39.3352 54.686 39.5938C54.4396 39.7853 53.6176 40.329 54.2306 40.6203" stroke="#F8F9FA" stroke-width="8" stroke-linecap="round"/>
</svg>
